<svg width="15" height="20" viewBox="0 0 15 20" fill="none" xmlns="http://www.w3.org/2000/svg">
<path d="M14.124 9.9766C13.9197 9.49172 13.6879 8.9416 13.4615 8.2627C12.869 6.48655 14.7623 4.54855 14.7803 4.53025L13.7197 3.46975C13.6142 3.5752 11.1522 6.07787 12.0385 8.7373C12.2831 9.4708 12.527 10.0491 12.742 10.5598C13.2424 11.5487 13.5021 12.6417 13.5 13.75C13.4121 14.6433 13.0692 15.4925 12.5122 16.1964C11.9551 16.9002 11.2074 17.429 10.3581 17.7197C10.6264 16.668 10.6223 15.5652 10.3462 14.5154C10.0701 13.4656 9.53121 12.5035 8.78025 11.7197L7.99695 10.9364L7.56083 11.9545C6.18368 15.1675 4.545 16.57 3.58103 17.155C2.98942 16.7927 2.49228 16.295 2.1305 15.7031C1.76872 15.1111 1.55263 14.4418 1.5 13.75C1.55167 12.8059 1.78833 11.8812 2.19653 11.0283C2.68082 10.0003 2.95403 8.8855 3 7.75V6.41628C3.65513 6.68628 4.5 7.39405 4.5 9.25V11.2026L5.8074 9.75205C8.14125 7.1611 7.6542 4.0762 6.7119 2.02097C7.42846 2.25986 8.04379 2.73291 8.45883 3.36398C8.87388 3.99505 9.0645 4.74743 9 5.5H10.5C10.5 1.34718 7.06605 0.25 5.25 0.25H3.75L4.6494 1.44895C4.75267 1.58815 6.7965 4.3948 5.66453 7.21495C5.41267 6.50617 4.95116 5.89079 4.34129 5.45051C3.73141 5.01024 3.00202 4.76592 2.25 4.75H1.5V7.75C1.44833 8.69409 1.21167 9.61883 0.803475 10.4717C0.319183 11.4997 0.0459713 12.6145 0 13.75C0 16.6358 2.8674 19.75 7.5 19.75C12.1326 19.75 15 16.6358 15 13.75C15.0011 12.4417 14.7014 11.1506 14.124 9.9766V9.9766ZM5.1264 17.8948C6.50983 16.7494 7.62733 15.3165 8.40128 13.6958C8.81468 14.3632 9.04955 15.1256 9.08334 15.9099C9.11714 16.6943 8.94872 17.4741 8.59425 18.1746C8.23151 18.2233 7.86599 18.2485 7.5 18.25C6.69515 18.2556 5.89434 18.1358 5.1264 17.8948V17.8948Z" fill="#E00000"/>
</svg>
