<svg width="70" height="48" viewBox="0 0 70 48" fill="none" xmlns="http://www.w3.org/2000/svg">
<path d="M56.8768 21.819C56.6845 21.819 56.4982 21.8393 56.3081 21.8478L53.0205 6.5457H61.2509V2.1819H50.3156C49.9893 2.1818 49.6672 2.25453 49.3727 2.39474C49.0783 2.53495 48.819 2.73911 48.614 2.99224C48.4089 3.24538 48.2632 3.54108 48.1875 3.85769C48.1118 4.17429 48.1081 4.50378 48.1766 4.822L49.4845 10.9095H27.1046L24.9176 4.3638H30.6319V0H15.3225V4.3638H20.309L22.5859 11.1779L16.9652 22.3911C14.4143 21.6117 11.6859 21.6265 9.14364 22.4335C6.60139 23.2404 4.36608 24.8013 2.73567 26.908C1.10527 29.0147 0.157223 31.5671 0.0179092 34.225C-0.121404 36.8829 0.554634 39.52 1.95591 41.7848C3.35718 44.0496 5.41712 45.8346 7.86114 46.9017C10.3052 47.9688 13.0171 48.2674 15.6356 47.7577C18.254 47.2479 20.6546 45.9541 22.5172 44.0486C24.3798 42.1431 25.616 39.7165 26.061 37.0923H31.7692C32.4253 37.0938 33.0732 36.9475 33.6646 36.6641C34.256 36.3807 34.7756 35.9677 35.1845 35.4559L50.6217 16.2024L52.0293 22.7566C49.0039 23.966 46.5391 26.2573 45.1165 29.1828C43.6938 32.1083 43.4156 35.4578 44.336 38.577C45.2565 41.6963 47.3095 44.3611 50.0941 46.0509C52.8787 47.7408 56.1947 48.3342 59.3944 47.7153C62.5942 47.0965 65.4476 45.3097 67.3975 42.7042C69.3473 40.0986 70.2534 36.8615 69.9388 33.6251C69.6241 30.3887 68.1113 27.3855 65.6959 25.2024C63.2805 23.0192 60.136 21.8129 56.8768 21.819ZM13.1354 43.638C11.9069 43.6414 10.6915 43.3866 9.56833 42.8902C8.44513 42.3939 7.4393 41.6671 6.61634 40.7572C5.79337 39.8473 5.17172 38.7746 4.79186 37.6091C4.41201 36.4436 4.28246 35.2114 4.41165 33.9926C4.54084 32.7738 4.92587 31.5959 5.54168 30.5354C6.15749 29.475 6.99028 28.5558 7.98581 27.8377C8.98133 27.1197 10.1173 26.6188 11.3197 26.3678C12.5221 26.1168 13.7641 26.1213 14.9647 26.3809L11.1791 33.9344L11.1988 33.944C11.0403 34.242 10.9545 34.5731 10.9483 34.9104C10.945 35.4015 11.1089 35.8791 11.4132 36.265C11.7176 36.651 12.1443 36.9223 12.6235 37.0347C13.1027 37.147 13.6059 37.0936 14.0507 36.8832C14.4955 36.6728 14.8555 36.318 15.0716 35.8768L15.0917 35.8864L18.8616 28.3647C20.2102 29.5251 21.1699 31.0699 21.6116 32.7912C22.0532 34.5124 21.9555 36.3273 21.3316 37.9914C20.7077 39.6555 19.5876 41.0889 18.1221 42.0985C16.6567 43.1081 14.9163 43.6454 13.1354 43.638ZM26.061 32.7285C25.4884 29.3708 23.6264 26.368 20.8704 24.3579L24.5418 17.0324L29.7855 32.7285H26.061ZM33.6232 30.4157L28.563 15.2733H45.7651L33.6232 30.4157ZM56.8768 43.638C54.9077 43.6438 52.9946 42.9847 51.4487 41.768C49.9028 40.5513 48.8151 38.8485 48.3624 36.9368C47.9097 35.025 48.1187 33.0166 48.9555 31.2384C49.7922 29.4602 51.2074 28.0167 52.9709 27.1428L54.7378 35.3686L54.7815 35.359C54.8778 35.8442 55.1387 36.2814 55.5204 36.5971C55.902 36.9129 56.381 37.0877 56.8768 37.0923C57.4568 37.0923 58.0131 36.8624 58.4232 36.4532C58.8334 36.0441 59.0638 35.4891 59.0638 34.9104C59.0503 34.758 59.0199 34.6075 58.9731 34.4618L59.0168 34.4522L57.2483 26.2201C59.5334 26.3127 61.6909 27.2959 63.2572 28.9583C64.8235 30.6208 65.6736 32.8298 65.625 35.1109C65.5763 37.3919 64.6327 39.5629 62.9969 41.1573C61.3611 42.7518 59.1637 43.6424 56.8768 43.638Z" fill="#242221"/>
</svg>
