<svg width="24" height="24" viewBox="0 0 24 24" fill="none" xmlns="http://www.w3.org/2000/svg">
<path d="M11.9991 22.344C17.7124 22.344 22.344 17.7124 22.344 11.9991C22.344 6.28583 17.7124 1.6543 11.9991 1.6543C6.28583 1.6543 1.6543 6.28583 1.6543 11.9991C1.6543 17.7124 6.28583 22.344 11.9991 22.344Z" stroke="#242221" stroke-width="1.25" stroke-linecap="round" stroke-linejoin="round"/>
<path d="M19.4786 18.6505V16.7195C19.4786 15.6952 19.0862 14.7129 18.3878 13.9886C17.6894 13.2643 16.7421 12.8574 15.7544 12.8574H8.30617C7.31847 12.8574 6.37122 13.2643 5.67281 13.9886C4.97439 14.7129 4.58203 15.6952 4.58203 16.7195V18.6505" stroke="#242221" stroke-width="1.25" stroke-linecap="round" stroke-linejoin="round"/>
<path d="M12.031 10.3746C13.8593 10.3746 15.3414 8.8925 15.3414 7.06425C15.3414 5.236 13.8593 3.75391 12.031 3.75391C10.2028 3.75391 8.7207 5.236 8.7207 7.06425C8.7207 8.8925 10.2028 10.3746 12.031 10.3746Z" stroke="#242221" stroke-width="1.25" stroke-linecap="round" stroke-linejoin="round"/>
</svg>
